<?xml version="1.0" standalone="no"?>
<!DOCTYPE svg PUBLIC "-//W3C//DTD SVG 20010904//EN"
 "http://www.w3.org/TR/2001/REC-SVG-20010904/DTD/svg10.dtd">
<svg version="1.0" xmlns="http://www.w3.org/2000/svg"
 width="1001.000000pt" height="1001.000000pt" viewBox="0 0 1001.000000 1001.000000"
 preserveAspectRatio="xMidYMid meet">
<metadata>
Created by potrace 1.11, written by Peter Selinger 2001-2013
</metadata>
<g transform="translate(0.000000,1001.000000) scale(0.100000,-0.100000)"
fill="#000000" stroke="none">
<path d="M4789 9996 c-2 -2 -38 -6 -79 -10 -112 -10 -144 -14 -265 -37 -509
-94 -964 -302 -1375 -628 -183 -145 -477 -457 -587 -622 -50 -75 -124 -190
-149 -233 -50 -84 -174 -344 -213 -446 l-39 -105 -368 -6 c-203 -3 -376 -8
-384 -12 -8 -3 -33 -9 -55 -12 -22 -3 -77 -17 -123 -31 -317 -96 -579 -319
-691 -588 -72 -172 -65 -7 -69 -1858 l-2 -1668 4610 0 4610 0 -1 1638 c0 1738
1 1682 -47 1828 -64 192 -208 374 -396 498 -103 69 -159 96 -273 136 -170 58
-257 68 -632 70 -185 0 -339 4 -342 8 -4 4 -17 35 -29 70 -12 34 -42 108 -66
165 -260 594 -705 1095 -1265 1424 -47 28 -95 53 -106 57 -12 4 -27 13 -33 21
-7 8 -19 15 -28 15 -8 0 -23 6 -31 13 -26 22 -256 116 -396 162 -223 74 -345
100 -645 140 -53 7 -524 17 -531 11z"/>
<path d="M1319 3546 c-2 -2 -24 -6 -49 -9 -139 -16 -214 -101 -164 -186 9 -15
29 -33 45 -40 17 -7 37 -23 45 -36 14 -22 111 -265 305 -769 114 -296 131
-331 179 -364 30 -21 43 -23 98 -19 104 8 110 18 251 370 99 248 114 277 142
277 22 0 31 -18 169 -348 51 -123 102 -235 113 -249 52 -65 177 -71 228 -10
41 49 157 325 321 767 43 118 83 224 87 235 5 11 17 40 27 65 10 25 39 68 65
95 56 60 68 82 63 115 -12 75 -82 107 -235 108 -185 1 -269 -32 -269 -108 0
-46 14 -65 70 -93 40 -20 45 -26 48 -60 2 -26 -11 -79 -39 -160 -51 -150 -72
-193 -98 -200 -35 -9 -65 38 -151 232 -59 136 -59 160 8 216 67 56 29 130 -80
155 -68 16 -365 22 -443 9 -33 -5 -81 -16 -106 -25 -111 -36 -124 -120 -28
-189 38 -27 57 -50 77 -93 33 -73 32 -99 -7 -200 -38 -96 -69 -139 -95 -129
-19 8 -67 105 -119 247 -48 129 -50 149 -21 207 52 106 13 163 -125 183 -54 8
-305 12 -312 6z"/>
<path d="M4474 3501 c-183 -50 -253 -131 -194 -226 30 -48 69 -60 190 -59 111
1 200 24 265 67 94 64 97 168 6 212 -54 27 -179 30 -267 6z"/>
<path d="M6515 3499 c-96 -19 -239 -60 -277 -80 -92 -47 -97 -111 -14 -169 64
-44 66 -51 65 -400 0 -407 -8 -463 -76 -528 -81 -78 -63 -142 48 -177 73 -23
332 -30 409 -12 133 32 162 85 97 176 -39 53 -41 68 -40 321 0 174 9 208 63
230 39 16 96 7 126 -21 47 -44 59 -100 58 -274 -1 -174 -11 -230 -51 -283 -31
-42 -28 -87 8 -115 46 -34 130 -46 293 -43 202 4 279 30 292 100 4 22 -4 35
-41 73 -25 26 -45 52 -46 57 0 6 -2 18 -4 27 -1 9 -6 126 -9 261 -4 135 -11
259 -16 276 -5 18 -7 32 -4 32 7 0 -26 62 -53 98 -69 92 -231 135 -360 97 -57
-17 -112 -57 -157 -115 -31 -41 -76 -55 -93 -28 -7 12 -7 154 1 381 5 129 0
139 -78 136 -28 -1 -91 -10 -141 -20z"/>
<path d="M7890 3316 c-74 -47 -184 -115 -243 -151 -60 -37 -112 -77 -116 -88
-9 -23 -6 -91 4 -107 3 -6 39 -10 78 -10 40 0 77 -4 84 -8 9 -5 13 -88 15
-302 3 -281 4 -297 25 -341 32 -66 92 -125 160 -156 75 -35 213 -41 314 -14
154 41 277 150 266 235 -10 77 -50 101 -108 67 -19 -11 -53 -23 -75 -27 -36
-5 -45 -3 -72 22 -20 18 -35 44 -40 69 -10 47 -8 408 2 424 5 7 51 11 131 11
117 0 125 1 139 22 20 28 22 168 4 186 -8 8 -54 12 -139 12 -83 0 -130 4 -135
11 -3 6 -7 55 -9 108 -1 54 -5 103 -9 109 -4 7 -34 12 -74 12 -67 0 -68 0
-202 -84z"/>
<path d="M6020 3189 c-45 -36 -136 -78 -182 -83 -25 -3 -94 3 -154 14 -71 12
-142 17 -204 15 -107 -3 -133 -8 -209 -36 -177 -65 -265 -165 -264 -300 0 -80
25 -138 88 -207 34 -37 41 -50 34 -64 -5 -10 -14 -18 -20 -18 -22 0 -72 -45
-100 -88 -49 -78 -34 -152 46 -226 33 -31 32 -40 -10 -66 -115 -71 -75 -235
75 -310 60 -31 86 -38 195 -59 52 -10 318 -7 370 3 204 43 343 133 407 264 27
55 33 77 32 133 0 57 -5 75 -30 116 -61 99 -149 130 -340 119 -64 -3 -119 -8
-123 -10 -13 -8 -184 -16 -216 -10 -41 7 -75 38 -75 67 0 46 9 49 161 52 124
2 155 6 226 29 143 46 248 134 275 231 6 22 11 67 10 100 0 54 3 63 33 97 71
78 95 188 51 237 -24 26 -44 26 -76 0z m-447 -219 c72 -63 84 -248 20 -312
-27 -27 -87 -34 -117 -15 -51 34 -89 171 -72 260 17 89 105 124 169 67z m-40
-895 c139 6 161 1 171 -41 30 -119 -291 -159 -401 -49 -30 30 -45 80 -28 97 3
2 33 1 68 -4 34 -5 119 -7 190 -3z"/>
<path d="M3559 3140 c-334 -103 -489 -454 -332 -753 135 -257 478 -344 759
-193 119 64 170 128 161 199 -6 43 -40 87 -69 87 -10 0 -37 -12 -59 -26 -98
-61 -207 -78 -287 -44 -80 35 -148 119 -135 169 5 21 9 21 267 21 279 1 275 0
309 53 23 36 25 144 4 203 -47 129 -150 227 -297 280 -66 24 -248 27 -321 4z
m224 -190 c26 -30 31 -44 29 -104 0 -44 -25 -56 -112 -56 -106 0 -121 14 -106
97 5 30 18 51 43 74 32 27 41 30 77 26 29 -4 49 -15 69 -37z"/>
<path d="M4680 3133 c-144 -22 -375 -93 -409 -124 -47 -44 -37 -103 26 -142
67 -43 66 -39 67 -250 1 -214 -8 -254 -64 -292 -46 -31 -66 -81 -48 -120 28
-61 138 -85 363 -81 178 4 244 18 289 62 19 20 26 37 26 65 0 32 -6 43 -44 74
-27 22 -50 51 -57 72 -8 25 -11 138 -11 368 1 380 1 376 -71 374 -23 -1 -53
-3 -67 -6z"/>
<path d="M8656 1983 c-2 -10 -8 -38 -11 -63 -4 -25 -9 -54 -11 -65 -5 -38 -34
-210 -38 -230 -2 -11 -7 -42 -10 -70 -4 -27 -11 -68 -16 -90 -5 -22 -11 -62
-15 -89 -3 -27 -7 -51 -9 -55 -2 -3 -7 -28 -10 -56 -9 -67 -15 -100 -26 -160
-6 -27 -12 -67 -15 -88 -7 -55 -14 -99 -19 -122 -3 -19 -18 -108 -36 -217 l-7
-48 118 0 117 0 6 28 c4 15 8 38 11 52 20 120 25 149 29 180 3 19 28 168 55
330 72 427 87 522 96 585 4 22 8 47 10 55 2 8 7 35 10 60 3 25 8 53 11 63 5
15 -5 17 -115 17 -105 0 -120 -2 -125 -17z"/>
<path d="M6288 1932 c-60 -3 -62 -5 -74 -64 -2 -13 -15 -66 -27 -118 l-22 -95
-75 -5 -75 -5 -16 -92 -15 -93 73 0 c40 0 73 -4 73 -8 0 -5 -9 -58 -20 -118
-34 -192 -71 -437 -74 -489 -9 -152 111 -247 294 -231 130 11 124 6 139 97 17
99 15 112 -9 99 -30 -16 -116 -9 -151 12 -16 10 -33 28 -38 41 -12 32 -9 57
34 317 34 205 37 222 40 240 2 8 4 21 4 28 1 9 31 12 115 12 l114 0 11 68 c7
37 14 79 17 95 l4 27 -114 0 c-113 0 -115 0 -111 23 2 12 7 45 11 72 4 28 8
52 9 55 0 3 4 28 9 55 4 28 9 58 12 68 5 15 -1 17 -38 15 -24 -2 -69 -4 -100
-6z"/>
<path d="M3218 1671 c-159 -32 -308 -194 -370 -399 -27 -92 -32 -269 -8 -354
56 -207 194 -311 404 -305 127 4 192 33 286 127 46 47 86 97 104 133 15 32 27
60 25 61 -2 2 -38 15 -79 29 -41 14 -82 28 -90 31 -11 5 -22 -6 -38 -38 -51
-106 -137 -164 -227 -153 -113 14 -172 98 -169 242 3 220 92 401 212 435 112
31 198 -19 238 -137 16 -45 22 -53 39 -49 11 3 51 10 88 17 41 7 71 17 74 26
8 20 -24 114 -56 166 -50 78 -124 134 -212 160 -50 15 -165 19 -221 8z"/>
<path d="M7258 1661 c-108 -27 -176 -90 -260 -240 l-20 -36 7 35 c3 19 9 49
11 65 3 17 9 54 14 84 16 88 22 82 -92 79 l-102 -3 -7 -35 c-4 -19 -10 -57
-13 -84 -4 -27 -8 -51 -10 -55 -3 -4 -7 -27 -11 -51 -3 -25 -8 -52 -10 -60 -2
-8 -6 -33 -10 -55 -3 -22 -10 -67 -16 -100 -5 -33 -12 -69 -14 -80 -1 -11 -12
-72 -24 -135 -21 -118 -48 -270 -57 -328 l-5 -33 112 3 113 3 7 29 c5 16 11
52 14 80 4 28 8 53 10 56 2 3 6 28 10 55 3 28 15 97 26 155 37 191 61 253 122
313 56 56 126 88 205 95 35 3 65 10 67 16 5 14 14 83 21 167 8 80 4 83 -88 60z"/>
<path d="M4204 1655 c-182 -44 -330 -215 -379 -439 -13 -58 -14 -226 -1 -275
43 -175 134 -271 298 -314 66 -17 176 -20 238 -5 169 40 326 219 375 428 17
75 20 203 5 281 -24 130 -114 248 -228 302 -56 26 -78 31 -161 32 -53 2 -119
-3 -147 -10z m221 -206 c94 -63 117 -254 55 -440 -44 -130 -109 -194 -208
-206 -133 -15 -222 75 -226 229 -6 194 72 380 178 430 56 26 152 20 201 -13z"/>
<path d="M5435 1646 c-68 -28 -134 -92 -184 -178 -35 -61 -36 -57 -16 43 8 41
16 89 19 107 l4 33 -106 -3 -107 -3 -12 -70 c-6 -38 -21 -122 -32 -185 -11
-63 -27 -156 -36 -205 -8 -50 -18 -102 -20 -115 -3 -14 -8 -41 -11 -60 -3 -19
-7 -42 -9 -50 -3 -8 -7 -35 -10 -60 -3 -25 -13 -78 -21 -118 -8 -40 -17 -90
-19 -112 l-4 -40 113 0 114 0 7 48 c17 115 86 481 99 522 62 201 188 311 310
270 54 -18 78 -64 75 -147 -1 -38 -6 -87 -10 -110 -10 -49 -86 -492 -94 -545
l-6 -38 114 0 115 0 6 43 c8 53 5 32 60 363 25 149 47 293 48 320 5 108 -23
185 -88 245 -47 42 -95 61 -169 66 -58 3 -80 0 -130 -21z"/>
<path d="M7762 1655 c-103 -29 -186 -85 -256 -174 -94 -120 -136 -256 -131
-424 7 -239 106 -377 308 -430 69 -18 182 -19 247 -2 126 33 237 133 308 277
89 178 97 390 22 545 -40 81 -108 149 -188 186 -55 26 -79 31 -161 34 -64 2
-114 -2 -149 -12z m189 -189 c50 -21 76 -48 101 -102 51 -117 7 -390 -79 -489
-55 -62 -152 -90 -228 -65 -48 16 -102 64 -121 109 -18 42 -24 163 -12 236 19
109 68 223 115 267 58 55 153 74 224 44z"/>
</g>
</svg>
